<?xml version="1.0" standalone="no"?>
<!DOCTYPE svg PUBLIC "-//W3C//DTD SVG 1.1//EN" "http://www.w3.org/Graphics/SVG/1.1/DTD/svg11.dtd">
<svg xmlns="http://www.w3.org/2000/svg" xmlns:xlink="http://www.w3.org/1999/xlink" version="1.1" id="Camada_1" x="0px" y="0px" viewBox="0 0 841.9 595.3" style="enable-background:new 0 0 841.9 595.3;" xml:space="preserve" width="841.9000244140625" height="595.2999877929688">
<style type="text/css">
	.st0{fill:#73C9EB;stroke:#73C9EB;stroke-width:8;stroke-miterlimit:10;}
</style>
<g>
	<path class="st0" d="M508.6,302.7c0-2.9,0-4.6,0-6.3c0-21.2-0.1-42.5,0.1-63.7c0-2.9-0.5-4-3.8-4c-20.4,0.2-40.7,0.1-61.1,0   c-2.5,0-3.4,0.5-3.3,3.2c0.2,5.2,0.2,10.5,0,15.7c-0.1,2.4,0.8,2.9,3,2.9c13.2-0.1,26.5,0.1,39.7-0.1c3,0,4.1,1,4.9,3.7   c8.7,30.3,4.3,58.3-14.2,84.1c-18.9,26.5-37.5,53.3-56,80c-2.1,3.1-3.1,2.7-5,0c-5.3-7.2-10.8-14.3-16.4-21.3   c-1.5-1.9-2.1-3.8-2.1-6.1c0-61.3,0-122.7,0.1-184c0-3.3-0.7-4.5-4.2-4.3c-5.9,0.3-11.7,0.2-17.6,0c-2.6-0.1-3.3,0.6-3.3,3.3   c0.6,25.6,1,51.2,1.4,76.8c0.5,26,0.9,52,1.5,77.9c0.1,2.6-0.5,3-2.9,2.1c-24.9-8.8-41.1-26.1-49.2-51c-2.8-8.6-4.1-17.5-4.2-26.5   c0-2.1-0.6-3.8-1.9-5.5c-21.5-29.7-42.9-59.5-64.3-89.3c-1.5-2.1-3.1-4.2-4.7-6.2c-1.6-2.1-0.8-3.1,1.5-3.4c1.2-0.1,2.5,0,3.8,0   c115.6,0,231.1,0,346.7,0c1.8,0,3.7,0,6.6,0C571.8,221.6,540.5,261.7,508.6,302.7z M457.8,353.8c-3.3,2-6.5,4.2-9.9,6   c-14.6,7.9-30.2,11.4-46.8,10.8c-2.1-0.1-3.8-0.3-3.7,2.9c0.3,5.7,0.1,11.5,0,17.2c0,1,0.1,2,0.7,2.9c5.6,7.4,11.3,14.8,17.2,22.5   c2.7-3.8,5.1-7.3,7.5-10.7c11.8-17,23.6-34,35.5-51c0-0.3,0.2-0.8,0.1-1C458.1,353,457.9,353.5,457.8,353.8z M511.8,293.1   c1-1,1.3-1.4,1.6-1.7c16.4-21.1,32.8-42.1,49.2-63.2c1.3-1.7,1.4-2.6-0.1-4.3c-5.7-6.1-11.2-12.4-16.7-18.7c-1.7-2-3.5-2.6-6.1-2.6   c-46.1,0.1-92.2,0.1-138.3,0c-3.5,0-3.9,1.1-3.9,4.2c0.2,35.6,0.3,71.2,0.3,106.8c0,17-0.1,34-0.3,50.9c0,2.4,0.6,3.2,3.1,3.1   c5.1-0.1,10.2,0,15.3-0.7c26.3-3.6,46.9-16.2,60.8-38.9c13.6-22.2,15.5-46.1,8.8-71c-0.5-2-1.4-2.7-3.6-2.6   c-13.7,0.1-27.5,0-41.2,0.1c-2.9,0-3.9-0.9-3.8-3.8c0.2-7.2,0.2-14.5,0-21.7c-0.1-2.9,0.8-3.5,3.5-3.5c21.6,0.1,43.2,0.1,64.8,0.1   c6.5,0,6.5,0,6.5,6.6C511.8,252,511.8,272.1,511.8,293.1z M248.7,184.4c1.4,1.7,2.8,3.1,3.9,4.6c7.7,10.6,15.4,21.2,22.9,31.9   c1.4,2,2.2,2.3,4.2,0.6c8.2-6.8,16.5-13.3,24.8-20c1.9-1.5,3.7-2.1,6.1-2.1c77,0.1,153.9,0.1,230.9,0c2.5,0,4.1,0.7,5.8,2.5   c6.2,7.1,12.6,14.1,19.1,21.4c10.1-13,20-25.7,30.4-39C480.3,184.4,364.7,184.4,248.7,184.4z M368.7,359.1c0.1-1,0.2-1.5,0.2-2   c-0.9-49.9-1.8-99.9-2.6-149.8c-0.1-3.8-1.9-3-3.9-2c-7.3,3.7-13.9,8.5-19.2,14.7c-25.1,29.2-30.7,62.2-17.1,98   C333.5,337.9,348.3,351.3,368.7,359.1z M315.9,277c3.2-31.8,16.1-56.9,43.1-73.8c-0.4-0.3-0.6-0.5-0.8-0.5c-16,0-32,0-47.9,0   c-1.2,0-2.2,0.2-3.1,0.9c-8.7,7-17.5,14.1-26.3,21c-1.4,1.1-1.5,1.9-0.5,3.3c3.1,4.2,6.1,8.5,9.2,12.7   C298.3,252.5,306.9,264.4,315.9,277z"/>
</g>
</svg>